<?xml version="1.0" encoding="UTF-8" standalone="no"?><!DOCTYPE svg PUBLIC "-//W3C//DTD SVG 1.1//EN" "http://www.w3.org/Graphics/SVG/1.1/DTD/svg11.dtd">
<svg width="100%" height="100%" viewBox="0 0 617 200" version="1.1" xmlns="http://www.w3.org/2000/svg" xmlns:xlink="http://www.w3.org/1999/xlink" xml:space="preserve">
  <path d="M616.667,16.667c-0,-9.199 -7.468,-16.667 -16.667,-16.667l-583.333,0c-9.199,0 -16.667,7.468 -16.667,16.667l-0,166.666c-0,9.199 7.468,16.667 16.667,16.667l583.333,0c9.199,0 16.667,-7.468 16.667,-16.667l-0,-166.666Z" style="fill:#2e2d33;"/>
  <path d="M304.887,105.237c-3.885,0.009 -7.679,1.181 -10.904,3.368c-3.225,2.187 -5.736,5.29 -7.214,8.918c-1.478,3.627 -1.858,7.615 -1.091,11.461c0.767,3.845 2.646,7.374 5.399,10.141c2.754,2.767 6.258,4.648 10.07,5.404c3.812,0.756 7.76,0.354 11.346,-1.156c3.585,-1.509 6.647,-4.058 8.797,-7.325c2.151,-3.266 3.294,-7.103 3.285,-11.025c0.037,-2.617 -0.447,-5.215 -1.424,-7.638c-0.977,-2.424 -2.427,-4.625 -4.264,-6.471c-1.837,-1.846 -4.024,-3.3 -6.429,-4.275c-2.405,-0.976 -4.979,-1.452 -7.571,-1.402Zm0,31.796c-2.381,0.168 -4.757,-0.391 -6.819,-1.604c-2.063,-1.214 -3.716,-3.025 -4.744,-5.2c-1.029,-2.174 -1.387,-4.611 -1.026,-6.994c0.362,-2.382 1.424,-4.6 3.049,-6.364c1.626,-1.765 3.74,-2.995 6.067,-3.53c2.328,-0.536 4.761,-0.352 6.983,0.527c2.222,0.88 4.131,2.414 5.479,4.403c1.347,1.989 2.071,4.342 2.077,6.752c0.074,1.527 -0.155,3.053 -0.674,4.489c-0.52,1.436 -1.319,2.753 -2.35,3.872c-1.031,1.12 -2.274,2.019 -3.655,2.646c-1.382,0.627 -2.873,0.968 -4.387,1.003Zm-42.972,-31.796c-3.884,0.009 -7.679,1.181 -10.904,3.368c-3.225,2.187 -5.735,5.29 -7.214,8.918c-1.478,3.627 -1.857,7.615 -1.091,11.461c0.767,3.845 2.646,7.374 5.399,10.141c2.754,2.767 6.258,4.648 10.07,5.404c3.812,0.756 7.76,0.354 11.346,-1.156c3.585,-1.509 6.647,-4.058 8.798,-7.325c2.15,-3.266 3.293,-7.103 3.284,-11.025c0.038,-2.617 -0.446,-5.215 -1.424,-7.638c-0.977,-2.424 -2.427,-4.625 -4.264,-6.471c-1.837,-1.846 -4.023,-3.3 -6.428,-4.275c-2.405,-0.976 -4.98,-1.452 -7.572,-1.402Zm0,31.796c-2.381,0.168 -4.757,-0.39 -6.819,-1.604c-2.062,-1.214 -3.715,-3.025 -4.744,-5.2c-1.029,-2.174 -1.386,-4.611 -1.025,-6.994c0.36,-2.382 1.423,-4.6 3.049,-6.364c1.625,-1.765 3.739,-2.995 6.066,-3.53c2.328,-0.536 4.76,-0.352 6.983,0.527c2.222,0.88 4.132,2.414 5.479,4.403c1.348,1.989 2.071,4.342 2.077,6.752c0.074,1.527 -0.155,3.053 -0.674,4.489c-0.52,1.436 -1.319,2.753 -2.35,3.872c-1.031,1.12 -2.274,2.019 -3.655,2.646c-1.381,0.627 -2.873,0.968 -4.387,1.003Zm-51.086,-25.698l-0,8.38l19.918,0c-0.312,3.947 -1.937,7.671 -4.611,10.568c-1.998,2.055 -4.401,3.665 -7.054,4.723c-2.652,1.059 -5.496,1.543 -8.345,1.422c-5.87,-0 -11.5,-2.354 -15.65,-6.545c-4.15,-4.19 -6.482,-9.874 -6.482,-15.801c-0,-5.926 2.332,-11.61 6.482,-15.801c4.15,-4.191 9.78,-6.545 15.65,-6.545c5.627,-0.084 11.06,2.074 15.123,6.006l5.855,-5.912c-2.748,-2.745 -6.011,-4.908 -9.597,-6.363c-3.587,-1.454 -7.425,-2.172 -11.289,-2.11c-4.099,-0.162 -8.188,0.515 -12.022,1.987c-3.834,1.473 -7.334,3.712 -10.291,6.583c-2.956,2.871 -5.308,6.316 -6.915,10.127c-1.606,3.811 -2.434,7.91 -2.434,12.051c-0,4.143 0.828,8.242 2.434,12.053c1.607,3.81 3.959,7.255 6.915,10.126c2.957,2.871 6.457,5.11 10.291,6.583c3.834,1.472 7.923,2.148 12.022,1.987c3.944,0.159 7.876,-0.526 11.54,-2.01c3.663,-1.484 6.974,-3.734 9.715,-6.602c4.842,-5.37 7.422,-12.434 7.193,-19.692c0.016,-1.747 -0.122,-3.492 -0.415,-5.215l-28.033,0Zm208.913,6.518c-1.205,-3.572 -3.453,-6.691 -6.45,-8.944c-2.997,-2.252 -6.601,-3.533 -10.335,-3.672c-2.522,-0.005 -5.018,0.512 -7.335,1.52c-2.316,1.008 -4.402,2.485 -6.131,4.339c-1.729,1.854 -3.062,4.047 -3.918,6.442c-0.856,2.396 -1.216,4.943 -1.059,7.485c-0.039,4.249 1.284,8.397 3.772,11.825c2.489,3.428 6.009,5.951 10.034,7.192c4.025,1.242 8.341,1.135 12.301,-0.304c3.961,-1.439 7.354,-4.133 9.671,-7.68l-6.684,-4.656c-0.997,1.678 -2.41,3.063 -4.1,4.018c-1.691,0.955 -3.599,1.448 -5.536,1.429c-1.999,0.083 -3.975,-0.446 -5.671,-1.517c-1.695,-1.072 -3.029,-2.637 -3.828,-4.488l26.235,-10.94l-0.966,-2.049Zm-26.744,6.611c-0.093,-1.444 0.1,-2.892 0.569,-4.259c0.469,-1.367 1.205,-2.625 2.163,-3.701c0.958,-1.076 2.12,-1.948 3.416,-2.563c1.296,-0.616 2.702,-0.963 4.134,-1.023c1.48,-0.095 2.956,0.251 4.243,0.996c1.288,0.745 2.329,1.856 2.996,3.194l-17.521,7.356Zm-21.301,19.18l8.622,0l-0,-58.192l-8.622,-0l-0,58.192Zm-14.109,-33.984l-0.323,-0c-1.309,-1.439 -2.908,-2.578 -4.69,-3.341c-1.781,-0.763 -3.704,-1.132 -5.638,-1.082c-5.039,0.247 -9.79,2.441 -13.27,6.129c-3.48,3.688 -5.42,8.586 -5.42,13.68c-0,5.093 1.94,9.992 5.42,13.679c3.48,3.688 8.231,5.883 13.27,6.129c1.955,0.04 3.894,-0.357 5.679,-1.161c1.786,-0.805 3.373,-1.998 4.649,-3.494l0.323,0l-0,2.84c-0,7.588 -4.012,11.638 -10.467,11.638c-2.156,-0.047 -4.249,-0.741 -6.014,-1.993c-1.765,-1.251 -3.122,-3.004 -3.899,-5.036l-7.469,3.119c1.381,3.502 3.782,6.498 6.886,8.593c3.103,2.095 6.764,3.189 10.496,3.138c10.098,0 18.443,-6.005 18.443,-20.623l0,-35.474l-7.976,-0l-0,3.259Zm-9.913,27.373c-3.021,-0.19 -5.857,-1.535 -7.929,-3.763c-2.073,-2.227 -3.227,-5.168 -3.227,-8.224c0,-3.056 1.154,-5.998 3.227,-8.225c2.072,-2.227 4.908,-3.573 7.929,-3.763c1.476,0.065 2.925,0.428 4.26,1.069c1.334,0.641 2.527,1.547 3.508,2.663c0.981,1.116 1.729,2.42 2.2,3.835c0.472,1.414 0.657,2.91 0.544,4.398c0.126,1.492 -0.049,2.995 -0.515,4.418c-0.467,1.423 -1.213,2.735 -2.196,3.858c-0.983,1.122 -2.181,2.032 -3.522,2.674c-1.341,0.642 -2.796,1.003 -4.279,1.06Zm112.454,-51.581l-20.654,-0l0,58.192l8.621,0l-0,-22.066l12.033,-0c2.459,0.178 4.925,-0.157 7.25,-0.984c2.321,-0.827 4.454,-2.129 6.254,-3.823c1.805,-1.695 3.242,-3.747 4.225,-6.028c0.984,-2.28 1.492,-4.741 1.492,-7.228c-0,-2.488 -0.508,-4.949 -1.492,-7.23c-0.983,-2.28 -2.421,-4.332 -4.225,-6.027c-1.8,-1.695 -3.933,-2.996 -6.254,-3.823c-2.325,-0.827 -4.791,-1.162 -7.25,-0.983Zm0,27.932l-12.033,-0l-0,-19.832l12.216,0c2.621,0 5.13,1.05 6.98,2.918c1.85,1.868 2.891,4.402 2.891,7.045c0,2.642 -1.041,5.176 -2.891,7.044c-1.85,1.869 -4.359,2.918 -6.98,2.918l-0.183,-0.093Zm53.208,-8.333c-3.141,-0.196 -6.266,0.542 -8.995,2.123c-2.729,1.58 -4.938,3.934 -6.359,6.769l7.609,3.212c0.771,-1.4 1.921,-2.544 3.321,-3.296c1.399,-0.752 2.983,-1.079 4.562,-0.941c1.096,-0.129 2.204,-0.036 3.263,0.272c1.058,0.308 2.045,0.826 2.904,1.524c0.858,0.698 1.57,1.561 2.096,2.54c0.524,0.978 0.85,2.052 0.958,3.16l-0,0.558c-2.771,-1.471 -5.859,-2.238 -8.988,-2.234c-8.208,-0 -16.6,4.655 -16.6,13.128c0.079,1.801 0.521,3.567 1.292,5.193c0.767,1.626 1.854,3.08 3.192,4.274c1.337,1.195 2.9,2.105 4.591,2.678c1.696,0.573 3.484,0.796 5.263,0.657c2.167,0.121 4.321,-0.341 6.25,-1.339c1.929,-0.999 3.558,-2.496 4.725,-4.34l0.275,-0l-0,4.655l8.3,0l-0,-22.392c-0,-10.196 -7.654,-16.108 -17.475,-16.108l-0.183,-0.093Zm-1.059,31.889c-2.812,0 -6.733,-1.443 -6.733,-4.935c-0,-4.655 4.887,-6.238 9.221,-6.238c2.737,-0.068 5.446,0.607 7.837,1.956c-0.287,2.528 -1.475,4.864 -3.341,6.576c-1.863,1.712 -4.28,2.684 -6.8,2.734l-0.184,-0.093Zm48.963,-30.539l-9.867,25.232l-0.275,-0l-10.238,-25.232l-9.22,-0l15.354,35.288l-8.759,19.599l9.221,-0l23.375,-54.887l-9.591,-0Zm-77.459,37.243l8.575,0l0,-58.192l-8.575,-0l0,58.192Z" style="fill:#fff;fill-rule:nonzero;"/>
  <path d="M179.167,66.165l-0,-22.811l7,0c1.556,-0.074 3.112,0.167 4.572,0.709c1.46,0.543 2.794,1.375 3.919,2.447c1.048,1.099 1.864,2.395 2.403,3.811c0.539,1.416 0.788,2.926 0.734,4.439c0.054,1.513 -0.195,3.022 -0.734,4.438c-0.538,1.417 -1.355,2.712 -2.403,3.812c-1.125,1.071 -2.459,1.903 -3.919,2.446c-1.46,0.543 -3.016,0.784 -4.572,0.709l-7,-0Zm2.945,-2.813l4.055,-0c1.148,0.058 2.298,-0.11 3.381,-0.495c1.083,-0.385 2.079,-0.979 2.93,-1.748c0.799,-0.848 1.417,-1.847 1.818,-2.938c0.401,-1.091 0.576,-2.251 0.515,-3.411c0.062,-1.155 -0.112,-2.31 -0.513,-3.394c-0.401,-1.085 -1.02,-2.078 -1.82,-2.917c-0.845,-0.782 -1.838,-1.386 -2.923,-1.778c-1.084,-0.392 -2.236,-0.563 -3.388,-0.504l-4.055,0l0,17.185Z" style="fill:#fff;fill-rule:nonzero;stroke:#fff;stroke-width:0.83px;"/>
  <rect x="201.963" y="43.355" width="2.945" height="22.81" style="fill:#fff;fill-rule:nonzero;stroke:#fff;stroke-width:0.83px;"/>
  <path d="M216.614,66.66c-1.745,-0.028 -3.44,-0.585 -4.858,-1.596c-1.584,-1.076 -2.704,-2.705 -3.137,-4.563l2.678,-1.102c0.328,1.238 1.021,2.35 1.989,3.194c0.914,0.819 2.097,1.279 3.328,1.292c1.182,0.04 2.342,-0.322 3.289,-1.027c0.439,-0.299 0.795,-0.703 1.035,-1.174c0.241,-0.472 0.359,-0.996 0.342,-1.525c0.031,-0.568 -0.079,-1.135 -0.319,-1.652c-0.24,-0.517 -0.603,-0.967 -1.058,-1.313c-1.309,-0.879 -2.757,-1.535 -4.284,-1.939c-1.724,-0.43 -3.315,-1.28 -4.628,-2.471c-0.511,-0.492 -0.914,-1.084 -1.184,-1.738c-0.27,-0.654 -0.401,-1.357 -0.385,-2.064c0.001,-0.812 0.175,-1.615 0.512,-2.356c0.336,-0.741 0.827,-1.402 1.439,-1.94c1.386,-1.096 3.089,-1.722 4.859,-1.783c1.77,-0.062 3.513,0.443 4.972,1.441c1.101,0.781 1.93,1.884 2.371,3.156l-2.678,1.102c-0.253,-0.789 -0.748,-1.48 -1.415,-1.977c-0.833,-0.661 -1.88,-0.999 -2.945,-0.95c-1.049,-0.017 -2.073,0.318 -2.907,0.95c-0.371,0.271 -0.673,0.627 -0.879,1.036c-0.206,0.41 -0.311,0.863 -0.307,1.321c-0.005,0.418 0.094,0.831 0.287,1.203c0.194,0.371 0.476,0.689 0.823,0.926c0.979,0.72 2.08,1.261 3.251,1.597c0.963,0.286 1.908,0.629 2.83,1.026c0.814,0.371 1.583,0.83 2.295,1.369c0.756,0.537 1.362,1.257 1.76,2.091c0.412,0.921 0.62,1.919 0.612,2.927c0.017,1.03 -0.219,2.048 -0.689,2.966c-0.42,0.832 -1.053,1.54 -1.836,2.053c-0.747,0.52 -1.573,0.918 -2.447,1.178c-0.884,0.246 -1.799,0.362 -2.716,0.342Z" style="fill:#fff;fill-rule:nonzero;stroke:#fff;stroke-width:0.83px;"/>
  <path d="M231.418,66.165l-2.946,0l0,-22.811l7.65,0c1.873,-0.032 3.684,0.664 5.049,1.939c0.689,0.608 1.234,1.359 1.598,2.2c0.363,0.841 0.536,1.752 0.506,2.667c0.025,0.908 -0.151,1.811 -0.515,2.645c-0.363,0.834 -0.905,1.579 -1.589,2.183c-1.365,1.275 -3.176,1.971 -5.049,1.939l-4.705,-0l0,9.238Zm0,-12.052l4.973,0c0.556,0.026 1.112,-0.07 1.627,-0.28c0.515,-0.211 0.978,-0.53 1.356,-0.936c0.377,-0.355 0.676,-0.783 0.881,-1.257c0.204,-0.474 0.31,-0.984 0.31,-1.5c-0,-0.515 -0.106,-1.025 -0.31,-1.499c-0.205,-0.474 -0.504,-0.902 -0.881,-1.257c-0.378,-0.406 -0.841,-0.726 -1.356,-0.936c-0.515,-0.21 -1.071,-0.306 -1.627,-0.281l-4.973,0l0,7.946Z" style="fill:#fff;fill-rule:nonzero;stroke:#fff;stroke-width:0.83px;"/>
  <path d="M265.843,63.201c-1.105,1.099 -2.416,1.971 -3.861,2.566c-1.443,0.594 -2.991,0.901 -4.554,0.901c-1.563,-0 -3.111,-0.307 -4.555,-0.901c-1.443,-0.595 -2.755,-1.467 -3.86,-2.566c-1.085,-1.116 -1.93,-2.439 -2.482,-3.891c-0.553,-1.451 -0.801,-2.999 -0.731,-4.549c-0.05,-1.561 0.222,-3.115 0.802,-4.567c0.578,-1.452 1.451,-2.77 2.564,-3.873c1.105,-1.098 2.417,-1.971 3.861,-2.565c1.443,-0.595 2.991,-0.901 4.554,-0.901c1.563,0 3.111,0.306 4.555,0.901c1.444,0.594 2.755,1.467 3.86,2.565c1.105,1.11 1.976,2.429 2.56,3.878c0.585,1.45 0.872,3.001 0.844,4.562c0.026,1.575 -0.277,3.138 -0.889,4.59c-0.613,1.453 -1.521,2.764 -2.668,3.85Zm-14.65,-1.901c0.806,0.832 1.775,1.491 2.848,1.935c1.072,0.445 2.225,0.666 3.387,0.65c1.163,0.023 2.318,-0.195 3.391,-0.64c1.074,-0.445 2.042,-1.107 2.844,-1.945c0.882,-0.845 1.579,-1.861 2.046,-2.987c0.468,-1.125 0.696,-2.335 0.67,-3.552c0.046,-1.206 -0.159,-2.409 -0.599,-3.533c-0.441,-1.125 -1.11,-2.148 -1.964,-3.006c-0.802,-0.837 -1.77,-1.5 -2.844,-1.945c-1.073,-0.445 -2.228,-0.663 -3.391,-0.64c-1.162,-0.016 -2.315,0.205 -3.387,0.65c-1.073,0.444 -2.042,1.103 -2.848,1.935c-0.842,0.865 -1.5,1.89 -1.933,3.013c-0.434,1.124 -0.635,2.323 -0.591,3.526c-0.044,1.203 0.157,2.402 0.591,3.526c0.433,1.123 1.091,2.148 1.933,3.013l-0.153,0Z" style="fill:#fff;fill-rule:nonzero;stroke:#fff;stroke-width:0.83px;"/>
  <path d="M273.493,66.166l-0,-22.811l3.825,0l11.131,17.755l0,-17.755l2.945,0l0,22.811l-3.06,-0l-11.475,-18.591l0,18.591l-3.366,-0Z" style="fill:#fff;fill-rule:nonzero;stroke:#fff;stroke-width:0.83px;"/>
  <path d="M296.441,66.165l-0,-22.81l2.945,-0l0,22.81l-2.945,0Zm2.754,-24.597l-2.563,-0l1.645,-4.068l3.213,-0l-2.295,4.068Z" style="fill:#fff;fill-rule:nonzero;stroke:#fff;stroke-width:0.83px;"/>
  <path d="M310.365,66.166l-8.07,-22.811l3.251,0l6.197,18.515l6.77,-18.515l3.251,0l-8.339,22.811l-3.06,-0Z" style="fill:#fff;fill-rule:nonzero;stroke:#fff;stroke-width:0.83px;"/>
  <path d="M338.517,46.169l-10.48,-0l-0,7.223l9.448,0l-0,2.737l-9.448,0l-0,7.223l10.48,0l0,2.814l-13.387,-0l-0,-22.811l13.387,0l0,2.814Z" style="fill:#fff;fill-rule:nonzero;stroke:#fff;stroke-width:0.83px;"/>
  <path d="M343.109,66.166l0,-22.811l3.06,0l0,19.998l9.946,-0l-0,2.813l-13.006,-0Z" style="fill:#fff;fill-rule:nonzero;stroke:#fff;stroke-width:0.83px;"/>
  <path d="M367.396,66.166l0,-22.811l3.596,0l11.169,17.755l0,-17.755l2.945,0l0,22.811l-3.098,-0l-11.666,-18.591l-0,18.591l-2.946,-0Z" style="fill:#fff;fill-rule:nonzero;stroke:#fff;stroke-width:0.83px;"/>
  <path d="M409.127,63.2c-1.104,1.099 -2.416,1.97 -3.86,2.565c-1.444,0.595 -2.992,0.901 -4.555,0.901c-1.563,0 -3.11,-0.306 -4.554,-0.901c-1.444,-0.595 -2.756,-1.466 -3.861,-2.565c-1.112,-1.103 -1.985,-2.421 -2.565,-3.873c-0.578,-1.452 -0.851,-3.006 -0.801,-4.567c-0.05,-1.561 0.223,-3.115 0.801,-4.567c0.58,-1.452 1.453,-2.77 2.565,-3.873c1.102,-1.098 2.41,-1.969 3.851,-2.563c1.441,-0.594 2.985,-0.9 4.545,-0.9c1.56,-0 3.104,0.306 4.545,0.9c1.441,0.594 2.749,1.465 3.851,2.563c1.119,1.1 1.999,2.416 2.585,3.868c0.586,1.452 0.864,3.008 0.819,4.572c0.05,1.561 -0.222,3.115 -0.801,4.567c-0.58,1.452 -1.452,2.77 -2.565,3.873Zm-14.65,-1.901c0.815,0.821 1.786,1.472 2.856,1.917c1.071,0.445 2.219,0.674 3.379,0.674c1.16,0 2.309,-0.229 3.379,-0.674c1.07,-0.445 2.041,-1.096 2.856,-1.917c0.847,-0.863 1.511,-1.886 1.951,-3.01c0.441,-1.124 0.649,-2.324 0.612,-3.529c0.037,-1.205 -0.171,-2.405 -0.612,-3.529c-0.44,-1.124 -1.104,-2.147 -1.951,-3.01c-0.815,-0.821 -1.786,-1.473 -2.856,-1.917c-1.07,-0.445 -2.219,-0.674 -3.379,-0.674c-1.16,-0 -2.308,0.229 -3.379,0.674c-1.07,0.444 -2.041,1.096 -2.856,1.917c-0.82,0.875 -1.455,1.905 -1.869,3.028c-0.414,1.123 -0.598,2.316 -0.541,3.511c-0.057,1.195 0.127,2.388 0.541,3.511c0.414,1.123 1.049,2.153 1.869,3.028Z" style="fill:#fff;fill-rule:nonzero;stroke:#fff;stroke-width:0.83px;"/>
  <path d="M47.687,47.55c-1.325,1.659 -1.978,3.765 -1.829,5.893l0,93.106c-0.141,2.148 0.561,4.266 1.953,5.893l0.291,0.337l51.353,-52.151l-0,-1.263l-51.478,-52.11l-0.29,0.295Z" style="fill:url(#_Linear1);fill-rule:nonzero;"/>
  <path d="M116.487,118.011l-17.034,-17.384l-0,-1.263l17.034,-17.384l0.374,0.253l20.4,11.701c5.817,3.326 5.817,8.798 -0,12.165l-20.317,11.701l-0.457,0.211Z" style="fill:url(#_Linear2);fill-rule:nonzero;"/>
  <path d="M116.986,117.8l-17.533,-17.804l-51.768,52.446c1.174,1.058 2.677,1.668 4.248,1.721c1.57,0.054 3.11,-0.451 4.352,-1.426l60.701,-34.937Z" style="fill:url(#_Linear3);fill-rule:nonzero;"/>
  <path d="M116.987,82.233l-60.701,-34.936c-1.234,-0.99 -2.773,-1.507 -4.346,-1.461c-1.573,0.046 -3.079,0.653 -4.255,1.713l51.769,52.446l17.533,-17.762Z" style="fill:url(#_Linear4);fill-rule:nonzero;"/>
  <path d="M116.488,117.381l-60.203,34.725c-1.197,0.915 -2.655,1.41 -4.155,1.41c-1.499,0 -2.957,-0.495 -4.155,-1.41l-0.29,0.295l0.29,0.337c1.198,0.915 2.656,1.41 4.155,1.41c1.5,-0 2.958,-0.495 4.155,-1.41l60.701,-34.936l-0.498,-0.421Z" style="fill-opacity:0.2;fill-rule:nonzero;"/>
  <path d="M47.685,151.854c-1.334,-1.67 -1.988,-3.793 -1.828,-5.935l0,0.631c-0.141,2.148 0.561,4.266 1.953,5.893l0.291,-0.295l-0.416,-0.294Z" style="fill-opacity:0.12;fill-rule:nonzero;"/>
  <path d="M137.263,105.468l-20.773,11.912l0.374,0.42l20.399,-11.743c1.204,-0.516 2.249,-1.351 3.024,-2.418c0.775,-1.067 1.252,-2.325 1.381,-3.643c-0.26,1.198 -0.794,2.317 -1.559,3.267c-0.765,0.951 -1.74,1.706 -2.846,2.205Z" style="fill-opacity:0.12;fill-rule:nonzero;"/>
  <path d="M56.288,47.888l80.976,46.637c1.106,0.499 2.081,1.254 2.846,2.205c0.765,0.95 1.299,2.069 1.558,3.267c-0.128,-1.318 -0.605,-2.577 -1.38,-3.644c-0.775,-1.066 -1.82,-1.901 -3.024,-2.417l-80.976,-46.638c-5.775,-3.367 -10.428,-0.589 -10.428,6.146l-0,0.631c-0,-6.735 4.653,-9.512 10.428,-6.187Z" style="fill:#fff;fill-opacity:0.25;fill-rule:nonzero;"/>
  <defs>
    <linearGradient id="_Linear1" x1="0" y1="0" x2="1" y2="0" gradientUnits="userSpaceOnUse" gradientTransform="matrix(-70.6235,69.7108,-69.7108,-70.6235,94.8846,52.475)">
      <stop offset="0" style="stop-color:#00a0ff;stop-opacity:1"/>
      <stop offset="0.01" style="stop-color:#00a1ff;stop-opacity:1"/>
      <stop offset="0.26" style="stop-color:#00beff;stop-opacity:1"/>
      <stop offset="0.51" style="stop-color:#00d2ff;stop-opacity:1"/>
      <stop offset="0.76" style="stop-color:#00dfff;stop-opacity:1"/>
      <stop offset="1" style="stop-color:#00e3ff;stop-opacity:1"/>
    </linearGradient>
    <linearGradient id="_Linear2" x1="0" y1="0" x2="1" y2="0" gradientUnits="userSpaceOnUse" gradientTransform="matrix(-100.503,1.23081e-14,-1.23081e-14,-100.503,144.864,99.9954)">
      <stop offset="0" style="stop-color:#ffe000;stop-opacity:1"/>
      <stop offset="0.41" style="stop-color:#ffbd00;stop-opacity:1"/>
      <stop offset="0.78" style="stop-color:#ffa500;stop-opacity:1"/>
      <stop offset="1" style="stop-color:#ff9c00;stop-opacity:1"/>
    </linearGradient>
    <linearGradient id="_Linear3" x1="0" y1="0" x2="1" y2="0" gradientUnits="userSpaceOnUse" gradientTransform="matrix(-95.7915,94.5121,-94.5121,-95.7915,107.472,109.677)">
      <stop offset="0" style="stop-color:#ff3a44;stop-opacity:1"/>
      <stop offset="1" style="stop-color:#c31162;stop-opacity:1"/>
    </linearGradient>
    <linearGradient id="_Linear4" x1="0" y1="0" x2="1" y2="0" gradientUnits="userSpaceOnUse" gradientTransform="matrix(42.7611,42.2089,-42.2089,42.7611,34.6397,16.5699)">
      <stop offset="0" style="stop-color:#32a071;stop-opacity:1"/>
      <stop offset="0.07" style="stop-color:#2da771;stop-opacity:1"/>
      <stop offset="0.48" style="stop-color:#15cf74;stop-opacity:1"/>
      <stop offset="0.8" style="stop-color:#06e775;stop-opacity:1"/>
      <stop offset="1" style="stop-color:#00f076;stop-opacity:1"/>
    </linearGradient>
  </defs>
</svg>