<?xml version="1.0" encoding="UTF-8" standalone="no"?><!DOCTYPE svg PUBLIC "-//W3C//DTD SVG 1.1//EN" "http://www.w3.org/Graphics/SVG/1.1/DTD/svg11.dtd"><svg width="100%" height="100%" viewBox="0 0 617 200" version="1.1" xmlns="http://www.w3.org/2000/svg" xmlns:xlink="http://www.w3.org/1999/xlink" xml:space="preserve" xmlns:serif="http://www.serif.com/" style="fill-rule:evenodd;clip-rule:evenodd;stroke-linejoin:round;stroke-miterlimit:2;"><path d="M616.667,16.667c-0,-9.199 -7.468,-16.667 -16.667,-16.667l-583.333,0c-9.199,0 -16.667,7.468 -16.667,16.667l-0,166.666c-0,9.199 7.468,16.667 16.667,16.667l583.333,0c9.199,0 16.667,-7.468 16.667,-16.667l-0,-166.666Z" style="fill:#2e2d33;"/><path d="M243.323,144.723l-10.441,0l-5.72,-17.771l-19.881,-0l-5.448,17.771l-10.166,0l19.697,-60.503l12.166,0l19.793,60.503Zm-17.88,-25.228l-5.173,-15.798c-0.547,-1.614 -1.572,-5.415 -3.085,-11.398l-0.184,-0c-0.918,3.812 -1.886,7.611 -2.906,11.398l-5.081,15.798l16.429,0Zm68.535,2.878c-0,7.42 -2.028,13.285 -6.083,17.59c-3.632,3.833 -8.143,5.747 -13.527,5.747c-5.812,0 -9.987,-2.064 -12.529,-6.192l-0.184,-0l0,22.982l-9.802,0l-0,-47.042c-0,-4.664 -0.125,-9.452 -0.364,-14.362l8.621,0l0.547,6.915l0.184,0c3.269,-5.21 8.23,-7.811 14.888,-7.811c5.205,0 9.55,2.033 13.026,6.102c3.485,4.073 5.223,9.429 5.223,16.071Zm-9.987,0.355c0,-4.246 -0.965,-7.747 -2.906,-10.502c-2.119,-2.873 -4.965,-4.31 -8.533,-4.31c-2.419,-0 -4.617,0.8 -6.58,2.378c-1.967,1.591 -3.255,3.669 -3.857,6.242c-0.304,1.2 -0.455,2.182 -0.455,2.955l-0,7.274c-0,3.174 0.983,5.851 2.951,8.038c1.968,2.187 4.524,3.278 7.669,3.278c3.693,0 6.566,-1.409 8.621,-4.219c2.06,-2.814 3.09,-6.524 3.09,-11.134Zm60.733,-0.355c0,7.42 -2.028,13.285 -6.088,17.59c-3.627,3.833 -8.138,5.747 -13.522,5.747c-5.811,0 -9.986,-2.064 -12.524,-6.192l-0.18,-0l0,22.982l-9.807,0l0,-47.042c0,-4.664 -0.124,-9.452 -0.363,-14.362l8.621,0l0.547,6.915l0.184,0c3.264,-5.21 8.226,-7.811 14.888,-7.811c5.2,0 9.545,2.033 13.03,6.102c3.476,4.073 5.214,9.429 5.214,16.071Zm-9.982,0.355c0,-4.246 -0.97,-7.747 -2.91,-10.502c-2.12,-2.873 -4.957,-4.31 -8.529,-4.31c-2.41,-0.001 -4.743,0.842 -6.584,2.378c-1.968,1.591 -3.251,3.669 -3.854,6.242c-0.298,1.2 -0.455,2.182 -0.455,2.955l0,7.274c0,3.174 0.984,5.851 2.943,8.038c1.968,2.182 4.524,3.278 7.678,3.278c3.692,0 6.566,-1.409 8.622,-4.219c2.055,-2.814 3.089,-6.524 3.089,-11.134Zm66.719,5.028c0,5.147 -1.807,9.334 -5.434,12.566c-3.987,3.533 -9.536,5.297 -16.667,5.297c-6.585,0 -11.863,-1.255 -15.858,-3.769l2.271,-8.079c4.303,2.574 9.025,3.865 14.17,3.865c3.692,-0 6.566,-0.828 8.63,-2.473c2.056,-1.646 3.081,-3.856 3.081,-6.611c0,-2.455 -0.846,-4.524 -2.543,-6.201c-1.687,-1.678 -4.506,-3.237 -8.441,-4.679c-10.713,-3.95 -16.065,-9.738 -16.065,-17.349c0,-4.973 1.876,-9.052 5.633,-12.225c3.742,-3.178 8.735,-4.765 14.979,-4.765c5.568,0 10.193,0.96 13.886,2.874l-2.451,7.901c-3.449,-1.855 -7.347,-2.782 -11.711,-2.782c-3.448,-0 -6.143,0.841 -8.073,2.514c-0.784,0.685 -1.408,1.529 -1.831,2.475c-0.423,0.945 -0.634,1.97 -0.62,3.003c-0,2.392 0.933,4.37 2.809,5.925c1.632,1.436 4.598,2.991 8.902,4.669c5.264,2.096 9.131,4.546 11.618,7.356c2.479,2.8 3.715,6.306 3.715,10.488Zm32.41,-19.386l-10.804,0l-0,21.182c-0,5.388 1.904,8.079 5.721,8.079c1.75,0 3.204,-0.15 4.354,-0.45l0.271,7.361c-1.934,0.713 -4.475,1.073 -7.625,1.073c-3.871,-0 -6.896,-1.169 -9.08,-3.501c-2.175,-2.337 -3.269,-6.256 -3.269,-11.761l-0,-21.992l-6.437,0l-0,-7.274l6.437,0l-0,-7.988l9.628,-2.873l-0,10.861l10.804,0l-0,7.283Zm48.754,14.181c0,6.706 -1.937,12.212 -5.808,16.517c-4.063,4.432 -9.45,6.642 -16.167,6.642c-6.475,0 -11.629,-2.123 -15.471,-6.37c-3.846,-4.246 -5.766,-9.606 -5.766,-16.066c-0,-6.761 1.975,-12.299 5.945,-16.604c3.959,-4.31 9.3,-6.465 16.017,-6.465c6.475,0 11.683,2.123 15.617,6.374c3.754,4.124 5.633,9.448 5.633,15.972Zm-10.175,0.314c0,-4.024 -0.867,-7.475 -2.629,-10.353c-2.054,-3.482 -4.992,-5.219 -8.8,-5.219c-3.942,-0 -6.933,1.741 -8.988,5.219c-1.762,2.883 -2.629,6.388 -2.629,10.534c0,4.024 0.867,7.474 2.629,10.348c2.121,3.482 5.08,5.219 8.9,5.219c3.742,0 6.684,-1.773 8.8,-5.31c1.813,-2.933 2.717,-6.42 2.717,-10.438Zm42.033,-13.244c-1.016,-0.183 -2.05,-0.272 -3.087,-0.268c-3.45,-0 -6.117,1.286 -7.992,3.864c-1.633,2.273 -2.45,5.146 -2.45,8.616l0,22.89l-9.8,0l0.092,-29.888c-0,-5.028 -0.121,-9.606 -0.367,-13.734l8.538,-0l0.358,8.347l0.275,-0c1.033,-2.869 2.667,-5.178 4.9,-6.91c2.046,-1.514 4.529,-2.334 7.083,-2.338c0.909,0 1.725,0.064 2.45,0.178l0,9.243Zm43.846,11.225c0.025,1.473 -0.096,2.946 -0.358,4.396l-29.408,0c0.116,4.31 1.537,7.606 4.266,9.88c2.479,2.032 5.684,3.05 9.621,3.05c4.354,0 8.325,-0.686 11.9,-2.064l1.533,6.729c-4.175,1.8 -9.104,2.696 -14.791,2.696c-6.842,-0 -12.213,-1.991 -16.121,-5.97c-3.896,-3.978 -5.85,-9.32 -5.85,-16.021c-0,-6.579 1.817,-12.057 5.45,-16.427c3.808,-4.664 8.954,-6.996 15.429,-6.996c6.358,-0 11.171,2.332 14.442,6.996c2.583,3.706 3.887,8.289 3.887,13.731Zm-9.35,-2.514c0.063,-2.874 -0.575,-5.356 -1.904,-7.452c-1.696,-2.696 -4.304,-4.042 -7.812,-4.042c-3.205,0 -5.813,1.314 -7.805,3.951c-1.629,2.096 -2.6,4.61 -2.9,7.538l20.421,0l0,0.005Z" style="fill:#fff;fill-rule:nonzero;"/><path d="M211.04,58.239c0,2.257 -0.887,4.131 -2.669,5.617c-2.038,1.733 -5.541,2.602 -10.491,2.602c-2.277,-0 -4.347,-0.111 -6.213,-0.332l-0,-27.386c1.975,-0.383 4.418,-0.579 7.331,-0.579c3.607,-0 6.33,0.622 8.179,1.861c1.844,1.239 2.768,2.947 2.768,5.123c0,1.32 -0.428,2.525 -1.276,3.615c-0.909,1.124 -2.155,1.965 -3.575,2.415l-0,0.123c1.659,0.383 3.029,1.129 4.107,2.227c1.227,1.293 1.884,2.979 1.839,4.714Zm-5.816,-12.639c0,-2.725 -1.916,-4.088 -5.739,-4.088c-1.339,0 -2.363,0.085 -3.093,0.251l-0,8.177l2.913,-0c1.825,-0 3.273,-0.401 4.328,-1.197c0.51,-0.367 0.92,-0.844 1.197,-1.39c0.276,-0.547 0.412,-1.147 0.394,-1.753Zm0.88,12.516c-0,-1.653 -0.681,-2.904 -2.047,-3.756c-1.222,-0.771 -2.845,-1.158 -4.874,-1.158l-2.787,-0l0,9.709c0.582,0.111 1.538,0.166 2.877,0.166c1.997,-0 3.584,-0.371 4.743,-1.116c1.389,-0.86 2.088,-2.138 2.088,-3.845Zm28.03,8.095l-4.242,-0l-0.348,-2.312l-0.13,-0c-1.457,1.844 -3.526,2.768 -6.209,2.768c-2.011,-0 -3.634,-0.609 -4.856,-1.819c-0.548,-0.544 -0.977,-1.185 -1.262,-1.887c-0.284,-0.702 -0.419,-1.45 -0.397,-2.201c0,-2.452 1.082,-4.322 3.26,-5.617c2.168,-1.294 5.225,-1.929 9.162,-1.899l-0,-0.374c-0,-2.645 -1.47,-3.965 -4.41,-3.965c-2.097,0 -3.945,0.498 -5.541,1.486l-0.961,-2.93c1.975,-1.154 4.415,-1.733 7.291,-1.733c5.559,-0 8.341,2.768 8.341,8.304l0,7.393c-0.005,2.005 0.104,3.602 0.302,4.786Zm-4.896,-6.898l-0,-3.096c-5.217,-0.086 -7.823,1.264 -7.823,4.045c0,1.048 0.302,1.831 0.911,2.355c0.633,0.531 1.458,0.812 2.304,0.783c1.041,0 2.006,-0.31 2.895,-0.928c0.537,-0.354 0.974,-0.827 1.272,-1.378c0.299,-0.551 0.45,-1.163 0.441,-1.781Zm18.102,-19.168c0.014,0.361 -0.053,0.72 -0.195,1.055c-0.143,0.334 -0.36,0.637 -0.634,0.887c-0.289,0.252 -0.626,0.447 -0.995,0.575c-0.368,0.128 -0.759,0.186 -1.151,0.171c-0.373,0.005 -0.744,-0.06 -1.089,-0.193c-0.345,-0.134 -0.658,-0.332 -0.92,-0.582c-0.262,-0.251 -0.467,-0.55 -0.603,-0.878c-0.136,-0.328 -0.2,-0.678 -0.188,-1.03c-0,-0.771 0.279,-1.41 0.834,-1.904c0.554,-0.494 1.235,-0.745 2.056,-0.745c0.762,-0.018 1.502,0.25 2.056,0.745c0.273,0.243 0.488,0.538 0.631,0.865c0.143,0.328 0.21,0.68 0.198,1.034Zm-0.523,26.066l-4.725,-0l0,-20.074l4.725,0l0,20.074Zm25.718,-0l-5.338,-0l-2.755,-4.211c-0.613,-0.937 -1.281,-2.053 -2.011,-3.347l-0.09,-0c-0.636,1.132 -1.306,2.248 -2.006,3.347l-2.625,4.211l-5.162,-0l7.254,-10.246l-6.997,-9.832l5.248,-0l2.669,4.007c0.523,0.77 1.181,1.831 1.971,3.181l0.13,-0c0.64,-1.184 1.281,-2.274 1.925,-3.262l2.494,-3.926l5.162,-0l-7.042,9.666l7.173,10.412Zm21.777,-0l-4.243,-0l-0.347,-2.312l-0.131,-0c-1.456,1.844 -3.526,2.768 -6.208,2.768c-2.011,-0 -3.634,-0.609 -4.856,-1.819c-0.548,-0.544 -0.977,-1.185 -1.262,-1.887c-0.285,-0.702 -0.42,-1.45 -0.397,-2.201c-0,-2.452 1.082,-4.322 3.259,-5.617c2.169,-1.294 5.226,-1.929 9.162,-1.899l0,-0.374c0,-2.645 -1.469,-3.965 -4.409,-3.965c-2.097,0 -3.945,0.498 -5.541,1.486l-0.961,-2.93c1.975,-1.154 4.414,-1.733 7.291,-1.733c5.559,-0 8.341,2.768 8.341,8.304l-0,7.393c-0.005,2.005 0.099,3.602 0.302,4.786Zm-4.901,-6.898l0,-3.096c-5.216,-0.086 -7.823,1.264 -7.823,4.045c0,1.048 0.302,1.831 0.911,2.355c0.633,0.531 1.458,0.812 2.304,0.783c1.042,0 2.007,-0.31 2.895,-0.928c0.537,-0.354 0.974,-0.827 1.273,-1.378c0.299,-0.551 0.45,-1.163 0.44,-1.781Zm24.095,-9.25c-0.491,-0.085 -0.989,-0.127 -1.488,-0.123c-1.655,-0 -2.94,0.592 -3.851,1.775c-0.784,1.048 -1.181,2.368 -1.181,3.965l-0,10.535l-4.721,0l0.045,-13.754c0,-2.313 -0.058,-4.421 -0.171,-6.32l4.112,0l0.176,3.841l0.131,0c0.491,-1.324 1.276,-2.384 2.358,-3.181c1.046,-0.715 2.182,-1.073 3.408,-1.073c0.442,-0 0.839,0.026 1.182,0.081l-0,4.254Zm37.269,16.148l-4.73,-0l-0,-11.498c-0,-3.543 -1.425,-5.314 -4.279,-5.314c-0.649,-0.017 -1.295,0.105 -1.887,0.358c-0.592,0.253 -1.115,0.63 -1.53,1.103c-0.866,0.958 -1.332,2.181 -1.312,3.44l-0,11.907l-4.721,-0l-0,-14.334c-0,-1.763 -0.063,-3.675 -0.176,-5.745l4.157,0l0.221,3.139l0.131,-0c0.546,-0.975 1.366,-1.78 2.448,-2.423c1.276,-0.75 2.714,-1.129 4.279,-1.129c1.988,0 3.639,0.605 4.95,1.819c1.628,1.486 2.449,3.704 2.449,6.651l-0,12.026Zm24.225,-0l-4.243,-0l-0.342,-2.312l-0.131,-0c-1.461,1.844 -3.53,2.768 -6.209,2.768c-2.015,-0 -3.638,-0.609 -4.86,-1.819c-0.548,-0.544 -0.976,-1.186 -1.26,-1.888c-0.284,-0.701 -0.418,-1.449 -0.395,-2.2c0,-2.452 1.082,-4.322 3.26,-5.617c2.164,-1.294 5.221,-1.929 9.157,-1.899l0,-0.374c0,-2.645 -1.47,-3.965 -4.405,-3.965c-2.096,0 -3.945,0.498 -5.545,1.486l-0.961,-2.93c1.979,-1.154 4.414,-1.733 7.291,-1.733c5.563,-0 8.341,2.768 8.341,8.304l-0,7.393c-0.005,2.005 0.099,3.602 0.302,4.786Zm-4.897,-6.898l0,-3.096c-5.221,-0.086 -7.827,1.264 -7.827,4.045c0,1.048 0.307,1.831 0.916,2.355c0.631,0.531 1.454,0.812 2.299,0.783c1.046,0 2.006,-0.31 2.899,-0.928c0.535,-0.357 0.97,-0.83 1.269,-1.381c0.298,-0.55 0.451,-1.16 0.444,-1.779Z" style="fill:#fff;fill-rule:nonzero;"/><path d="M138.376,103.71c-0.134,-14.739 12.185,-21.91 12.748,-22.244c-6.976,-10.074 -17.79,-11.451 -21.59,-11.561c-9.081,-0.946 -17.891,5.383 -22.517,5.383c-4.719,-0 -11.843,-5.291 -19.522,-5.135c-9.88,0.15 -19.124,5.817 -24.193,14.615c-10.462,17.94 -2.659,44.304 7.364,58.805c5.014,7.102 10.874,15.032 18.542,14.753c7.503,-0.306 10.306,-4.738 19.36,-4.738c8.971,0 11.603,4.738 19.424,4.56c8.053,-0.128 13.122,-7.134 17.961,-14.3c5.794,-8.14 8.121,-16.157 8.214,-16.568c-0.189,-0.065 -15.639,-5.905 -15.791,-23.57Zm-14.775,-43.344c4.036,-4.998 6.797,-11.798 6.03,-18.699c-5.84,0.256 -13.145,4.001 -17.351,8.89c-3.721,4.308 -7.045,11.368 -6.187,18.008c6.561,0.485 13.297,-3.278 17.508,-8.199Z" style="fill:#fff;fill-rule:nonzero;"/></svg>