<svg xmlns="http://www.w3.org/2000/svg" version="1.1" x="0" y="0" viewBox="0 0 18 18" xml:space="preserve" width="100%" height="100%"><path d="M15.89 4.01c0.81-0.5 1.34-1.17 1.61-2.03 -0.79 0.42-1.57 0.7-2.35 0.86 -0.7-0.76-1.59-1.14-2.66-1.14 -1.04 0-1.92 0.37-2.64 1.08C9.13 3.5 8.77 4.37 8.77 5.38c0 0.31 0.04 0.59 0.12 0.82C5.81 6.1 3.26 4.82 1.25 2.37c-0.34 0.6-0.51 1.21-0.51 1.85 0 1.3 0.55 2.33 1.65 3.09C1.77 7.25 1.21 7.09 0.75 6.83c0 0.93 0.27 1.71 0.82 2.39 0.55 0.68 1.25 1.11 2.12 1.29 -0.31 0.08-0.64 0.12-0.98 0.12 -0.31 0-0.53-0.03-0.66-0.08 0.23 0.76 0.66 1.37 1.29 1.84 0.63 0.47 1.34 0.72 2.15 0.74 -1.33 1.05-2.85 1.56-4.58 1.56 -0.42 0-0.72-0.01-0.9-0.04 1.7 1.1 3.59 1.65 5.68 1.65 2.14 0 4.03-0.54 5.67-1.63 1.65-1.08 2.86-2.41 3.64-3.97 0.78-1.56 1.17-3.19 1.17-4.89V5.34c0.76-0.57 1.37-1.21 1.84-1.92C17.32 3.71 16.62 3.91 15.89 4.01z"/></svg>
