<svg xmlns="http://www.w3.org/2000/svg" version="1.1" x="0" y="0" viewBox="0 0 438.54 438.54" xml:space="preserve" width="100%" height="100%"><rect x="5.42" y="145.9" width="94.22" height="282.93"/><path d="M408.84 171.74c-19.79-21.6-45.97-32.41-78.51-32.41 -11.99 0-22.89 1.48-32.69 4.43 -9.8 2.95-18.08 7.09-24.84 12.42 -6.75 5.33-12.13 10.28-16.13 14.84 -3.8 4.34-7.51 9.39-11.14 15.1v-40.23h-93.93l0.29 13.71c0.19 9.14 0.29 37.31 0.29 84.51 0 47.21-0.19 108.78-0.57 184.72h93.93V270.94c0-9.7 1.04-17.41 3.14-23.13 4-9.71 10.04-17.84 18.13-24.41 8.09-6.57 18.13-9.85 30.13-9.85 16.36 0 28.41 5.66 36.12 16.99 7.71 11.32 11.56 26.98 11.56 46.97V428.82h93.93V266.66C438.53 224.98 428.64 193.34 408.84 171.74z"/><path d="M53.1 9.71c-15.8 0-28.59 4.62-38.4 13.85C4.9 32.79 0 44.44 0 58.53c0 13.89 4.76 25.51 14.28 34.83 9.51 9.32 22.08 13.99 37.69 13.99h0.57c15.99 0 28.89-4.66 38.69-13.99 9.8-9.32 14.61-20.93 14.42-34.83 -0.19-14.09-5.05-25.74-14.56-34.97C81.56 14.32 68.9 9.71 53.1 9.71z"/></svg>
